<?xml version="1.0" standalone="no"?>
<!DOCTYPE svg PUBLIC "-//W3C//DTD SVG 20010904//EN"
 "http://www.w3.org/TR/2001/REC-SVG-20010904/DTD/svg10.dtd">
<svg version="1.0" xmlns="http://www.w3.org/2000/svg"
 width="512.000000pt" height="512.000000pt" viewBox="0 0 512.000000 512.000000"
 preserveAspectRatio="xMidYMid meet">

<g transform="translate(0.000000,512.000000) scale(0.100000,-0.100000)"
fill="#000000" stroke="none">
<path d="M1165 4948 c-27 -5 -86 -27 -131 -48 -152 -73 -274 -232 -303 -394
-8 -41 -11 -618 -11 -1831 0 -1930 -3 -1820 56 -1937 36 -71 123 -159 193
-197 120 -64 69 -61 1243 -61 l1068 0 0 -135 c0 -131 1 -137 25 -160 39 -40
68 -32 187 46 l108 72 108 -72 c59 -39 116 -71 125 -71 26 0 74 27 81 45 3 9
6 75 6 146 l0 129 215 0 c216 0 216 0 240 25 l25 24 0 2191 0 2191 -25 24 -24
25 -1568 -1 c-931 -1 -1588 -5 -1618 -11z m3075 -1828 l0 -1680 -1572 -2
-1573 -3 -58 -23 c-31 -13 -80 -39 -107 -57 l-50 -34 2 1587 3 1587 32 67 c17
37 50 87 72 111 44 48 135 101 197 116 23 5 678 9 1547 10 l1507 1 0 -1680z
m0 -1960 l0 -120 -1335 0 -1336 0 -24 -25 c-16 -15 -25 -36 -25 -55 0 -19 9
-40 25 -55 l24 -25 856 0 855 0 0 -120 0 -120 -1082 2 -1083 3 -45 24 c-76 40
-115 77 -151 143 -31 58 -34 70 -34 148 0 70 5 94 25 135 42 86 125 154 215
176 17 4 724 7 1573 8 l1542 1 0 -120z m-480 -525 l0 -245 -67 45 c-37 25 -79
45 -93 45 -14 0 -56 -20 -93 -45 l-67 -45 0 245 0 245 160 0 160 0 0 -245z
m480 125 l0 -120 -160 0 -160 0 0 120 0 120 160 0 160 0 0 -120z"/>
<path d="M1225 4615 c-22 -21 -25 -33 -25 -95 0 -62 3 -74 25 -95 15 -16 36
-25 55 -25 19 0 40 9 55 25 22 21 25 33 25 95 0 62 -3 74 -25 95 -15 16 -36
25 -55 25 -19 0 -40 -9 -55 -25z"/>
<path d="M1225 4215 l-25 -24 0 -1071 0 -1071 25 -24 c32 -33 78 -33 110 0
l25 24 0 1071 0 1071 -25 24 c-15 16 -36 25 -55 25 -19 0 -40 -9 -55 -25z"/>
<path d="M2032 3983 c-24 -21 -432 -994 -432 -1030 0 -33 43 -73 77 -73 49 0
67 23 128 174 l60 146 215 0 215 0 60 -146 c61 -151 79 -174 128 -174 34 0 77
40 77 73 0 36 -408 1009 -432 1030 -11 9 -33 17 -48 17 -15 0 -37 -8 -48 -17z
m121 -445 c37 -90 67 -166 67 -170 0 -5 -63 -8 -140 -8 -77 0 -140 3 -140 8 0
13 134 332 140 332 3 0 36 -73 73 -162z"/>
<path d="M3145 3975 c-16 -15 -25 -36 -25 -55 0 -19 9 -40 25 -55 l24 -25 261
0 260 0 -282 -422 c-186 -279 -283 -434 -286 -455 -3 -24 2 -38 22 -57 l25
-26 351 0 351 0 24 25 c33 32 33 78 0 110 l-24 25 -261 0 -260 0 282 423 c186
278 283 433 286 454 3 24 -2 38 -22 57 l-25 26 -351 0 -351 0 -24 -25z"/>
<path d="M2665 3495 c-16 -15 -25 -36 -25 -55 0 -19 9 -40 25 -55 23 -24 28
-25 175 -25 147 0 152 1 175 25 16 15 25 36 25 55 0 19 -9 40 -25 55 -23 24
-28 25 -175 25 -147 0 -152 -1 -175 -25z"/>
<path d="M1225 1815 c-22 -21 -25 -33 -25 -95 0 -62 3 -74 25 -95 15 -16 36
-25 55 -25 19 0 40 9 55 25 22 21 25 33 25 95 0 62 -3 74 -25 95 -15 16 -36
25 -55 25 -19 0 -40 -9 -55 -25z"/>
<path d="M1065 1015 c-16 -15 -25 -36 -25 -55 0 -19 9 -40 25 -55 23 -24 31
-25 135 -25 104 0 112 1 135 25 16 15 25 36 25 55 0 19 -9 40 -25 55 -23 24
-31 25 -135 25 -104 0 -112 -1 -135 -25z"/>
</g>
</svg>
